<svg id="Earth" xmlns="http://www.w3.org/2000/svg" viewBox="0 0 551.51 585.01"><defs><style>.cls-1{fill:none;stroke:#000;stroke-miterlimit:10;stroke-width:5px;}.cls-2{fill:#fff;}</style></defs><title>Destination Line Logo</title><circle id="Circle" class="cls-1" cx="293.01" cy="293.01" r="256"/><g id="Countries"><path id="Country_2" data-name="Country 2" d="M367.68,54.88a253.88,253.88,0,0,1,81.53,38.8s-29.57-4.88-40.77,5.14-27.53,33.7-40.77,0S367.68,54.88,367.68,54.88Z" transform="translate(-6.99 -6.99)"/><g id="Country_1" data-name="Country 1"><path d="M514.7,162.26s-14.55,21.25-11.81,34.91,18.78,14.7,17.13,24.72S506.53,219,492,245.43s-7.28,62.84,13.66,65.57,50.08-10,50.08-10A253.77,253.77,0,0,0,514.7,162.26Zm10.44,116.68-6.29,20.57a0.77,0.77,0,1,1-1.47-.45l6.29-20.57A11.5,11.5,0,1,1,525.13,278.94Z" transform="translate(-6.99 -6.99)"/><circle cx="524.81" cy="263.65" r="3.07" transform="translate(112.23 681.43) rotate(-73)"/></g><circle cx="333.81" cy="320.65" r="3.07" transform="translate(-77.42 539.11) rotate(-73)"/><path d="M402.71,340.14c-20.94-4.55-22.77-9.11-36.43-21s-41-14.57-41-14.57c-26-6.15-35.51,34.61-30,55.55s26.41,27.32,31,37.34-2.73,51-5.46,64.65-14.57,37.34,0,57.38,20.94,4.55,20.94,4.55c-11.84-7.29-10-18.22-4.55-36.43s20-27.31,31.87-38.24,36.43-47.36,50.09-70.12S423.65,344.69,402.71,340.14Zm-68.58-4.2-6.29,20.56a0.76,0.76,0,1,1-1.46-.45l6.29-20.56A11.48,11.48,0,1,1,334.13,335.94Zm36.62,79.18a11.51,11.51,0,0,1-13.62,7.82l-6.29,20.56a0.76,0.76,0,1,1-1.46-.45l6.29-20.56A11.5,11.5,0,1,1,370.75,415.12Zm-13-10.41a3.07,3.07,0,1,0,2,3.83A3.07,3.07,0,0,0,357.71,404.71Z" transform="translate(-6.99 -6.99)"/><circle cx="211.81" cy="182.65" r="3.07" transform="translate(-31.78 324.8) rotate(-73)"/><path d="M312.56,119.77c-31-15.48-18.21,20-22.77,25.5s-24.59,4.55-41-4.56-14.56-23.67.92-35.51,20.94-21.86,4.55-22.77-60.11,15.48-63.74,7,18.21-15.2,43.71-24.31S293,72.87,300.72,83.79s19.58,27.32,26.41,21.86S349,92,316.2,74.23,300.72,46,300.72,46A254.38,254.38,0,0,0,109,132.87s14.14,17.86,19.61,28.79,3.57,34.85,30,66.47c9.25,11,31.87,16.39,42.8,35.52,4.73,8.28,8.19,11.76,16.18,18.72,6.07,5.29,12.3,9.2,23.36,14.63,21.22,10.42,42,20.64,45.73,15.82,3.29-4.3-6.6-21.14-20.62-31-11.44-8-19.33-7-23.11-14.86-3.67-7.7-1.23-19.26,5.81-24.29,8.1-5.78,23.16-4,28.69,3.64,3.64,5,8.65,11.83,14.12,10.93S287.06,244.52,288,230s30.05-40.07,55.55-62.84S343.52,135.25,312.56,119.77Zm-86.81,70.35a11.51,11.51,0,0,1-13.62,7.82l-6.29,20.56a0.76,0.76,0,1,1-1.46-.45l6.29-20.56A11.5,11.5,0,1,1,225.75,190.12Zm105-43a11.51,11.51,0,0,1-13.62,7.82l-6.29,20.56a0.76,0.76,0,1,1-1.46-.45l6.29-20.56A11.5,11.5,0,1,1,330.75,147.12Zm-13-10.41a3.07,3.07,0,1,0,2,3.83A3.07,3.07,0,0,0,317.71,136.71Z" transform="translate(-6.99 -6.99)"/></g><g id="Plane"><line class="cls-2" x1="512.86" y1="481.68" x2="486.74" y2="509.15"/><path d="M517.73,486.55L491.61,514c-2.66,2.8,1.58,7,4.24,4.24L522,490.79c2.66-2.8-1.58-7-4.24-4.24h0Z" transform="translate(-6.99 -6.99)"/><polygon class="cls-2" points="490.16 519.14 486.74 509.15 476.59 506.24 486.74 509.15 490.16 519.14"/><path d="M500,525.34l-1.88-5.49c-0.57-1.66-1-4.52-2.31-5.82s-4.21-1.6-5.89-2.08l-5.58-1.6c-3.72-1.07-5.31,4.72-1.6,5.79L492.93,519l-2.1-2.1,3.42,10c1.24,3.63,7,2.07,5.79-1.6l-1.88-5.49c-0.57-1.66-1-4.52-2.31-5.82s-4.21-1.6-5.89-2.08l-5.58-1.6c-3.72-1.07-5.31,4.72-1.6,5.79L492.93,519l-2.1-2.1,3.42,10C495.5,530.56,501.3,529,500,525.34Z" transform="translate(-6.99 -6.99)"/><path class="cls-2" d="M493.63,486.24l17,12.33Z" transform="translate(-6.99 -6.99)"/><path d="M492.11,488.83l17,12.33c3.13,2.27,6.13-2.93,3-5.18l-17-12.33c-3.13-2.27-6.13,2.93-3,5.18l17,12.33c3.13,2.27,6.13-2.93,3-5.18l-17-12.33C492,481.38,489,486.58,492.11,488.83Z" transform="translate(-6.99 -6.99)"/><path class="cls-2" d="M523.76,514.9L510.6,498.58Z" transform="translate(-6.99 -6.99)"/><path d="M525.89,512.78l-13.17-16.33c-2.42-3-6.65,1.26-4.24,4.24L521.64,517c2.42,3,6.65-1.26,4.24-4.24l-13.17-16.33c-2.42-3-6.65,1.26-4.24,4.24L521.64,517C524.07,520,528.29,515.76,525.89,512.78Z" transform="translate(-6.99 -6.99)"/></g><g id="Plane_path" data-name="Plane path"><path d="M55.88,456l0,0-2.52,1.62,0,0A293.8,293.8,0,0,0,76,488.26l0,0,2.29-1.94,0,0A292.1,292.1,0,0,1,55.88,456Z" transform="translate(-6.99 -6.99)"/><path d="M82.47,103.39a295.28,295.28,0,0,0-23.69,29.92l0,0,2.47,1.71,0,0A292,292,0,0,1,84.7,105.41l0,0-2.22-2Z" transform="translate(-6.99 -6.99)"/><path d="M129.62,61.34A294.83,294.83,0,0,0,100.09,85.5l0,0,2,2.19,0,0a291,291,0,0,1,29.23-23.91l0,0-1.75-2.44Z" transform="translate(-6.99 -6.99)"/><path d="M45.39,154.56a292.94,292.94,0,0,0-16.74,34.31l0,0.05,2.78,1.14,0-.05A289.45,289.45,0,0,1,48,156l0,0-2.61-1.49Z" transform="translate(-6.99 -6.99)"/><path d="M95.19,504.6l0,0L93,506.69l0,0a295.46,295.46,0,0,0,28.73,25.11l0,0,1.79-2.34h0l0-.06A292.13,292.13,0,0,1,95.19,504.6Z" transform="translate(-6.99 -6.99)"/><path d="M10.35,314.69H10.4v-0.1h0c0-.68-0.06-1.35-0.1-2-0.19-4.44-.3-8.91-0.3-13.29,0-8.16.35-16.39,1-24.47v-0.05l-3-.26v0C7.34,282.71,7,291,7,299.28c0,4.46.11,9,.31,13.42,0,0.62.06,1.29,0.1,2.09v0Z" transform="translate(-6.99 -6.99)"/><path d="M20.15,212.52a289.88,289.88,0,0,0-8.93,37.13v0l2.95,0.5v0A289.74,289.74,0,0,1,23,213.41l0,0-2.87-.89v0.05Z" transform="translate(-6.99 -6.99)"/><path d="M27.93,400v0l-2.82,1,0,0a290.93,290.93,0,0,0,15.56,34.83V436l2.68-1.42,0,0A288.15,288.15,0,0,1,27.93,400Z" transform="translate(-6.99 -6.99)"/><path d="M12.74,339.38v0l-3,.41v0a292.41,292.41,0,0,0,7.66,37.38l0,0,2.89-.79v0A290,290,0,0,1,12.74,339.38Z" transform="translate(-6.99 -6.99)"/><path d="M360.68,582.51A292.71,292.71,0,0,1,323.32,588h0l0.24,3h0a294.81,294.81,0,0,0,37.75-5.57h0l-0.63-2.93h0Z" transform="translate(-6.99 -6.99)"/><path d="M420,562.8a287.88,287.88,0,0,1-35.29,13.44l0,0,0.88,2.86h0a289.67,289.67,0,0,0,35.65-13.58h0.07l-1.26-2.75Z" transform="translate(-6.99 -6.99)"/><path d="M473.73,530.72l0,0a289.44,289.44,0,0,1-31.54,20.73l0,0,1.48,2.61,0,0a293.55,293.55,0,0,0,31.87-21l0,0-1.77-2.35Z" transform="translate(-6.99 -6.99)"/><path d="M286.3,7.3c-5.45.24-10.93,0.64-16.31,1.18h0l0.29,2.93,0.06,0c5.31-.53,10.74-0.93,16.14-1.18C293.69,10,301,9.91,308,10.11h0l0.09-3h0C301.07,6.91,293.56,7,286.3,7.3Z" transform="translate(-6.99 -6.99)"/><path d="M245.14,12.06a292.29,292.29,0,0,0-37,9.48l0,0,0.93,2.85,0,0A290.62,290.62,0,0,1,245.69,15h0l-0.55-3h-0.05Z" transform="translate(-6.99 -6.99)"/><path d="M184.67,30.4a290.92,290.92,0,0,0-34,17.21l-0.06-.1v0.17l1.51,2.56,0,0a291,291,0,0,1,33.66-17.06l0.05,0-1.18-2.75Z" transform="translate(-6.99 -6.99)"/><path d="M200.06,571.47l-0.05,0-1,2.82h0A289.67,289.67,0,0,0,235.67,585h0l0.65-2.92h0A288.66,288.66,0,0,1,200.06,571.47Z" transform="translate(-6.99 -6.99)"/><path d="M144,543.72l0,0-1.61,2.53,0,0a293.85,293.85,0,0,0,33.45,18.38l0,0,1.28-2.71-0.05,0A292,292,0,0,1,144,543.72Z" transform="translate(-6.99 -6.99)"/><path d="M260.79,586.45h-0.05l-0.39,3h0.05A294.51,294.51,0,0,0,298.46,592h0v-3h-0.05A290.91,290.91,0,0,1,260.79,586.45Z" transform="translate(-6.99 -6.99)"/></g></svg>